<svg width="116" height="34" viewBox="0 0 116 34" fill="none" xmlns="http://www.w3.org/2000/svg">
<path d="M45.8252 12.0469H47.5615L50.1182 19.3545L52.6748 12.0469H54.4111L50.8154 22H49.4209L45.8252 12.0469ZM44.8887 12.0469H46.6182L46.9326 19.1699V22H44.8887V12.0469ZM53.6182 12.0469H55.3545V22H53.3037V19.1699L53.6182 12.0469ZM61.0215 20.332V17.0371C61.0215 16.8001 60.9827 16.5973 60.9053 16.4287C60.8278 16.2555 60.707 16.1211 60.543 16.0254C60.3835 15.9297 60.1761 15.8818 59.9209 15.8818C59.7021 15.8818 59.513 15.9206 59.3535 15.998C59.194 16.071 59.071 16.1781 58.9844 16.3193C58.8978 16.4561 58.8545 16.6178 58.8545 16.8047H56.8857C56.8857 16.4902 56.9587 16.1917 57.1045 15.9092C57.2503 15.6266 57.4622 15.3783 57.7402 15.1641C58.0182 14.9453 58.3486 14.7744 58.7314 14.6514C59.1188 14.5283 59.5518 14.4668 60.0303 14.4668C60.6045 14.4668 61.1149 14.5625 61.5615 14.7539C62.0081 14.9453 62.359 15.2324 62.6143 15.6152C62.874 15.998 63.0039 16.4766 63.0039 17.0508V20.2158C63.0039 20.6214 63.029 20.9541 63.0791 21.2139C63.1292 21.4691 63.2021 21.6924 63.2979 21.8838V22H61.3086C61.2129 21.7995 61.14 21.5488 61.0898 21.248C61.0443 20.9427 61.0215 20.6374 61.0215 20.332ZM61.2812 17.4951L61.2949 18.6094H60.1943C59.9346 18.6094 59.709 18.639 59.5176 18.6982C59.3262 18.7575 59.1689 18.8418 59.0459 18.9512C58.9229 19.056 58.8317 19.179 58.7725 19.3203C58.7178 19.4616 58.6904 19.6165 58.6904 19.7852C58.6904 19.9538 58.7292 20.1064 58.8066 20.2432C58.8841 20.3753 58.9958 20.4801 59.1416 20.5576C59.2874 20.6305 59.4583 20.667 59.6543 20.667C59.9505 20.667 60.208 20.6077 60.4268 20.4893C60.6455 20.3708 60.8141 20.2249 60.9326 20.0518C61.0557 19.8786 61.1195 19.7145 61.124 19.5596L61.6436 20.3936C61.5706 20.5804 61.4704 20.7741 61.3428 20.9746C61.2197 21.1751 61.0625 21.3643 60.8711 21.542C60.6797 21.7152 60.4495 21.8587 60.1807 21.9727C59.9118 22.082 59.5928 22.1367 59.2236 22.1367C58.7542 22.1367 58.3281 22.0433 57.9453 21.8564C57.5671 21.665 57.2663 21.403 57.043 21.0703C56.8242 20.7331 56.7148 20.3503 56.7148 19.9219C56.7148 19.5345 56.7878 19.1904 56.9336 18.8896C57.0794 18.5889 57.2936 18.3359 57.5762 18.1309C57.8633 17.9212 58.221 17.764 58.6494 17.6592C59.0778 17.5498 59.5745 17.4951 60.1396 17.4951H61.2812ZM66.4492 16.1826V22H64.4805V14.6035H66.3262L66.4492 16.1826ZM66.1621 18.042H65.6289C65.6289 17.4951 65.6995 17.0029 65.8408 16.5654C65.9821 16.1234 66.1803 15.7474 66.4355 15.4375C66.6908 15.123 66.9938 14.8838 67.3447 14.7197C67.7002 14.5511 68.0967 14.4668 68.5342 14.4668C68.8805 14.4668 69.1973 14.5169 69.4844 14.6172C69.7715 14.7174 70.0176 14.877 70.2227 15.0957C70.4323 15.3145 70.5918 15.6038 70.7012 15.9639C70.8151 16.3239 70.8721 16.7637 70.8721 17.2832V22H68.8896V17.2764C68.8896 16.9482 68.8441 16.693 68.7529 16.5107C68.6618 16.3285 68.5273 16.2008 68.3496 16.1279C68.1764 16.0505 67.9622 16.0117 67.707 16.0117C67.4427 16.0117 67.2126 16.0641 67.0166 16.1689C66.8252 16.2738 66.6657 16.4196 66.5381 16.6064C66.415 16.7887 66.3216 17.0029 66.2578 17.249C66.194 17.4951 66.1621 17.7594 66.1621 18.042ZM77.0518 14.6035H78.8359V21.7539C78.8359 22.4284 78.6855 23.0003 78.3848 23.4697C78.0885 23.9437 77.6738 24.3014 77.1406 24.543C76.6074 24.7891 75.9876 24.9121 75.2812 24.9121C74.9714 24.9121 74.6432 24.8711 74.2969 24.7891C73.9551 24.707 73.627 24.5794 73.3125 24.4062C73.0026 24.2331 72.7428 24.0143 72.5332 23.75L73.4014 22.5879C73.6292 22.8522 73.8936 23.0573 74.1943 23.2031C74.4951 23.3535 74.8278 23.4287 75.1924 23.4287C75.5479 23.4287 75.8486 23.3626 76.0947 23.2305C76.3408 23.1029 76.5299 22.9137 76.6621 22.6631C76.7943 22.417 76.8604 22.1185 76.8604 21.7676V16.3125L77.0518 14.6035ZM72.0752 18.3906V18.2471C72.0752 17.682 72.1436 17.1693 72.2803 16.709C72.4215 16.2441 72.6198 15.8454 72.875 15.5127C73.1348 15.18 73.4492 14.9225 73.8184 14.7402C74.1875 14.5579 74.6045 14.4668 75.0693 14.4668C75.5615 14.4668 75.974 14.5579 76.3066 14.7402C76.6393 14.9225 76.9128 15.1823 77.127 15.5195C77.3411 15.8522 77.5075 16.2464 77.626 16.7021C77.749 17.1533 77.8447 17.6478 77.9131 18.1855V18.5C77.8447 19.015 77.7422 19.4935 77.6055 19.9355C77.4688 20.3776 77.2887 20.765 77.0654 21.0977C76.8421 21.4258 76.5641 21.681 76.2314 21.8633C75.9033 22.0456 75.5114 22.1367 75.0557 22.1367C74.5999 22.1367 74.1875 22.0433 73.8184 21.8564C73.4538 21.6696 73.1416 21.4076 72.8818 21.0703C72.6221 20.7331 72.4215 20.3366 72.2803 19.8809C72.1436 19.4251 72.0752 18.9284 72.0752 18.3906ZM74.0439 18.2471V18.3906C74.0439 18.696 74.0736 18.9808 74.1328 19.2451C74.1921 19.5094 74.2832 19.7441 74.4062 19.9492C74.5339 20.1497 74.6911 20.307 74.8779 20.4209C75.0693 20.5303 75.2949 20.585 75.5547 20.585C75.9147 20.585 76.2087 20.5098 76.4365 20.3594C76.6644 20.2044 76.8353 19.9925 76.9492 19.7236C77.0632 19.4548 77.1292 19.1449 77.1475 18.7939V17.8984C77.1383 17.6113 77.0996 17.3538 77.0312 17.126C76.9629 16.8936 76.8672 16.6953 76.7441 16.5312C76.6211 16.3672 76.4616 16.2396 76.2656 16.1484C76.0697 16.0573 75.8372 16.0117 75.5684 16.0117C75.3086 16.0117 75.083 16.071 74.8916 16.1895C74.7048 16.3034 74.5475 16.4606 74.4199 16.6611C74.2969 16.8617 74.2035 17.0986 74.1396 17.3721C74.0758 17.641 74.0439 17.9326 74.0439 18.2471ZM80.4902 12.0469H84.2021C84.9632 12.0469 85.6172 12.1608 86.1641 12.3887C86.7155 12.6165 87.1393 12.9538 87.4355 13.4004C87.7318 13.847 87.8799 14.3962 87.8799 15.0479C87.8799 15.5811 87.7887 16.0391 87.6064 16.4219C87.4287 16.8001 87.1758 17.1169 86.8477 17.3721C86.5241 17.6227 86.1436 17.8232 85.7061 17.9736L85.0566 18.3154H81.8301L81.8164 16.7158H84.2158C84.5758 16.7158 84.8743 16.652 85.1113 16.5244C85.3483 16.3968 85.526 16.2191 85.6445 15.9912C85.7676 15.7633 85.8291 15.499 85.8291 15.1982C85.8291 14.8792 85.7699 14.6035 85.6514 14.3711C85.5329 14.1387 85.3529 13.9609 85.1113 13.8379C84.8698 13.7148 84.5667 13.6533 84.2021 13.6533H82.541V22H80.4902V12.0469ZM86.0547 22L83.7852 17.5635L85.9521 17.5498L88.249 21.9043V22H86.0547ZM92.7402 22.1367C92.166 22.1367 91.651 22.0456 91.1953 21.8633C90.7396 21.6764 90.3522 21.4189 90.0332 21.0908C89.7188 20.7627 89.4772 20.3822 89.3086 19.9492C89.14 19.5117 89.0557 19.0469 89.0557 18.5547V18.2812C89.0557 17.7207 89.1354 17.208 89.2949 16.7432C89.4544 16.2783 89.6823 15.875 89.9785 15.5332C90.2793 15.1914 90.6439 14.9294 91.0723 14.7471C91.5007 14.5602 91.9837 14.4668 92.5215 14.4668C93.0456 14.4668 93.5104 14.5534 93.916 14.7266C94.3216 14.8997 94.6611 15.1458 94.9346 15.4648C95.2126 15.7839 95.4222 16.1667 95.5635 16.6133C95.7048 17.0553 95.7754 17.5475 95.7754 18.0898V18.9102H89.8965V17.5977H93.8408V17.4473C93.8408 17.1738 93.7907 16.93 93.6904 16.7158C93.5947 16.4971 93.4489 16.3239 93.2529 16.1963C93.057 16.0687 92.8063 16.0049 92.501 16.0049C92.2412 16.0049 92.0179 16.0618 91.8311 16.1758C91.6442 16.2897 91.4915 16.4492 91.373 16.6543C91.2591 16.8594 91.1725 17.1009 91.1133 17.3789C91.0586 17.6523 91.0312 17.9531 91.0312 18.2812V18.5547C91.0312 18.8509 91.0723 19.1243 91.1543 19.375C91.2409 19.6257 91.3617 19.8421 91.5166 20.0244C91.6761 20.2067 91.8675 20.348 92.0908 20.4482C92.3187 20.5485 92.5762 20.5986 92.8633 20.5986C93.2188 20.5986 93.5492 20.5303 93.8545 20.3936C94.1644 20.2523 94.431 20.0404 94.6543 19.7578L95.6113 20.7969C95.4564 21.0202 95.2445 21.2344 94.9756 21.4395C94.7113 21.6445 94.3923 21.8132 94.0186 21.9453C93.6449 22.0729 93.2188 22.1367 92.7402 22.1367ZM100.896 19.9561C100.896 19.8148 100.854 19.6872 100.772 19.5732C100.69 19.4593 100.538 19.3545 100.314 19.2588C100.096 19.1585 99.779 19.0674 99.3643 18.9854C98.9906 18.9033 98.6419 18.8008 98.3184 18.6777C97.9993 18.5501 97.7214 18.3975 97.4844 18.2197C97.252 18.042 97.0697 17.8324 96.9375 17.5908C96.8053 17.3447 96.7393 17.0645 96.7393 16.75C96.7393 16.4401 96.8053 16.1484 96.9375 15.875C97.0742 15.6016 97.2679 15.36 97.5186 15.1504C97.7738 14.9362 98.0837 14.7699 98.4482 14.6514C98.8174 14.5283 99.2321 14.4668 99.6924 14.4668C100.335 14.4668 100.886 14.5693 101.347 14.7744C101.812 14.9795 102.167 15.262 102.413 15.6221C102.664 15.9775 102.789 16.3831 102.789 16.8389H100.82C100.82 16.6475 100.779 16.4766 100.697 16.3262C100.62 16.1712 100.497 16.0505 100.328 15.9639C100.164 15.8727 99.9499 15.8271 99.6855 15.8271C99.4668 15.8271 99.2777 15.8659 99.1182 15.9434C98.9587 16.0163 98.8356 16.1165 98.749 16.2441C98.667 16.3672 98.626 16.5039 98.626 16.6543C98.626 16.7682 98.6488 16.8708 98.6943 16.9619C98.7445 17.0485 98.8242 17.1283 98.9336 17.2012C99.043 17.2741 99.1842 17.3424 99.3574 17.4062C99.5352 17.4655 99.7539 17.5202 100.014 17.5703C100.547 17.6797 101.023 17.8232 101.442 18.001C101.862 18.1742 102.194 18.4111 102.44 18.7119C102.687 19.0081 102.81 19.3978 102.81 19.8809C102.81 20.209 102.737 20.5098 102.591 20.7832C102.445 21.0566 102.235 21.2959 101.962 21.501C101.688 21.7015 101.36 21.8587 100.978 21.9727C100.599 22.082 100.173 22.1367 99.6992 22.1367C99.0111 22.1367 98.4277 22.0137 97.9492 21.7676C97.4753 21.5215 97.1152 21.2093 96.8691 20.8311C96.6276 20.4482 96.5068 20.0563 96.5068 19.6553H98.373C98.3822 19.9242 98.4505 20.1406 98.5781 20.3047C98.7103 20.4688 98.8766 20.5872 99.0771 20.6602C99.2822 20.7331 99.5033 20.7695 99.7402 20.7695C99.9954 20.7695 100.207 20.7354 100.376 20.667C100.545 20.5941 100.672 20.4984 100.759 20.3799C100.85 20.2568 100.896 20.1156 100.896 19.9561ZM107.711 14.6035V15.998H103.404V14.6035H107.711ZM104.471 12.7783H106.439V19.7715C106.439 19.9857 106.467 20.1497 106.521 20.2637C106.581 20.3776 106.667 20.4574 106.781 20.5029C106.895 20.5439 107.039 20.5645 107.212 20.5645C107.335 20.5645 107.444 20.5599 107.54 20.5508C107.64 20.5371 107.725 20.5234 107.793 20.5098L107.8 21.959C107.631 22.0137 107.449 22.057 107.253 22.0889C107.057 22.1208 106.84 22.1367 106.604 22.1367C106.171 22.1367 105.792 22.0661 105.469 21.9248C105.15 21.779 104.904 21.5465 104.73 21.2275C104.557 20.9085 104.471 20.4893 104.471 19.9697V12.7783ZM108.34 18.377V18.2334C108.34 17.6911 108.417 17.1921 108.572 16.7363C108.727 16.276 108.953 15.8773 109.249 15.54C109.545 15.2028 109.91 14.9408 110.343 14.7539C110.776 14.5625 111.272 14.4668 111.833 14.4668C112.394 14.4668 112.893 14.5625 113.33 14.7539C113.768 14.9408 114.134 15.2028 114.431 15.54C114.731 15.8773 114.959 16.276 115.114 16.7363C115.269 17.1921 115.347 17.6911 115.347 18.2334V18.377C115.347 18.9147 115.269 19.4137 115.114 19.874C114.959 20.3298 114.731 20.7285 114.431 21.0703C114.134 21.4076 113.77 21.6696 113.337 21.8564C112.904 22.0433 112.407 22.1367 111.847 22.1367C111.286 22.1367 110.787 22.0433 110.35 21.8564C109.917 21.6696 109.55 21.4076 109.249 21.0703C108.953 20.7285 108.727 20.3298 108.572 19.874C108.417 19.4137 108.34 18.9147 108.34 18.377ZM110.309 18.2334V18.377C110.309 18.6868 110.336 18.9762 110.391 19.2451C110.445 19.514 110.532 19.751 110.65 19.9561C110.773 20.1566 110.933 20.3138 111.129 20.4277C111.325 20.5417 111.564 20.5986 111.847 20.5986C112.12 20.5986 112.355 20.5417 112.551 20.4277C112.747 20.3138 112.904 20.1566 113.022 19.9561C113.141 19.751 113.228 19.514 113.282 19.2451C113.341 18.9762 113.371 18.6868 113.371 18.377V18.2334C113.371 17.9326 113.341 17.6501 113.282 17.3857C113.228 17.1169 113.139 16.8799 113.016 16.6748C112.897 16.4652 112.74 16.3011 112.544 16.1826C112.348 16.0641 112.111 16.0049 111.833 16.0049C111.555 16.0049 111.318 16.0641 111.122 16.1826C110.931 16.3011 110.773 16.4652 110.65 16.6748C110.532 16.8799 110.445 17.1169 110.391 17.3857C110.336 17.6501 110.309 17.9326 110.309 18.2334Z" fill="#333333"/>
<path d="M35.0463 0H0.214311C0.0960349 0 0 0.0964564 0 0.215448V33.7193C0 33.8383 0.0960349 33.9347 0.214311 33.9347H35.0463C35.1646 33.9347 35.26 33.8383 35.26 33.7193V0.215448C35.26 0.0964564 35.1646 0 35.0463 0Z" fill="#74A512"/>
<path d="M9.31909 7.46802V26.4666" stroke="white" stroke-width="3.08178"/>
<path d="M15.012 7.46802V16.9314" stroke="white" stroke-width="3.07593"/>
<path d="M19.3488 7.46875V10.6831H24.7812L28.7219 18.826H32.2702L26.6348 7.46875H19.3488Z" fill="white"/>
<path d="M20.963 14.1665V26.8438" stroke="white" stroke-width="3.56014"/>
</svg>
