<svg width="16" height="18" viewBox="0 0 16 18" fill="none" xmlns="http://www.w3.org/2000/svg">
<g clip-path="url(#clip0_1_393)">
<path d="M7.92224 4.95732C5.68722 4.95732 3.88444 6.76084 3.88444 8.99677C3.88444 11.2327 5.68722 13.0362 7.92224 13.0362C10.1573 13.0362 11.96 11.2327 11.96 8.99677C11.96 6.76084 10.1573 4.95732 7.92224 4.95732ZM7.92224 11.6229C6.47791 11.6229 5.29714 10.4452 5.29714 8.99677C5.29714 7.54834 6.4744 6.3706 7.92224 6.3706C9.37009 6.3706 10.5473 7.54834 10.5473 8.99677C10.5473 10.4452 9.36657 11.6229 7.92224 11.6229ZM13.067 4.79209C13.067 5.31592 12.6453 5.73428 12.1252 5.73428C11.6016 5.73428 11.1834 5.3124 11.1834 4.79209C11.1834 4.27178 11.6051 3.8499 12.1252 3.8499C12.6453 3.8499 13.067 4.27178 13.067 4.79209ZM15.7413 5.74834C15.6816 4.48623 15.3934 3.36826 14.4692 2.44717C13.5485 1.52607 12.4309 1.23779 11.1694 1.17451C9.8691 1.10068 5.97187 1.10068 4.67162 1.17451C3.41354 1.23428 2.29603 1.52256 1.3718 2.44365C0.447565 3.36474 0.162915 4.48271 0.09966 5.74482C0.025862 7.0456 0.025862 10.9444 0.09966 12.2452C0.159401 13.5073 0.447565 14.6253 1.3718 15.5464C2.29603 16.4675 3.41002 16.7558 4.67162 16.819C5.97187 16.8929 9.8691 16.8929 11.1694 16.819C12.4309 16.7593 13.5485 16.471 14.4692 15.5464C15.3899 14.6253 15.6781 13.5073 15.7413 12.2452C15.8151 10.9444 15.8151 7.04912 15.7413 5.74834ZM14.0615 13.6409C13.7874 14.33 13.2568 14.8608 12.5645 15.1386C11.5278 15.5499 9.06787 15.455 7.92224 15.455C6.77662 15.455 4.31317 15.5464 3.28 15.1386C2.59122 14.8643 2.06058 14.3335 1.78296 13.6409C1.3718 12.6038 1.46668 10.1429 1.46668 8.99677C1.46668 7.85068 1.37531 5.38623 1.78296 4.35263C2.05706 3.66357 2.5877 3.13271 3.28 2.85498C4.31669 2.44365 6.77662 2.53857 7.92224 2.53857C9.06787 2.53857 11.5313 2.44717 12.5645 2.85498C13.2533 3.1292 13.7839 3.66006 14.0615 4.35263C14.4727 5.38974 14.3778 7.85068 14.3778 8.99677C14.3778 10.1429 14.4727 12.6073 14.0615 13.6409Z" fill="white"/>
</g>
<defs>
<clipPath id="clip0_1_393">
<rect width="15.9111" height="18" fill="white" transform="translate(0.0889893)"/>
</clipPath>
</defs>
</svg>
