<svg width="17" height="15" viewBox="0 0 17 15" fill="none" xmlns="http://www.w3.org/2000/svg">
<g clip-path="url(#clip0_1_395)">
<path d="M3.844 15V4.87953H0.468674V15H3.844ZM2.15677 3.49692C3.33381 3.49692 4.06646 2.71978 4.06646 1.74862C4.04453 0.755565 3.33385 0 2.17911 0C1.02455 0 0.269531 0.75558 0.269531 1.74862C0.269531 2.71983 1.002 3.49692 2.13474 3.49692H2.15667H2.15677ZM5.71223 15H9.08756V9.34824C9.08756 9.04576 9.10949 8.7436 9.19862 8.52738C9.44263 7.92304 9.99801 7.29712 10.9304 7.29712C12.1518 7.29712 12.6404 8.2252 12.6404 9.5857V14.9999H16.0155V9.19695C16.0155 6.08834 14.3503 4.64193 12.1296 4.64193C10.3087 4.64193 9.50925 5.65626 9.0651 6.34712H9.08763V4.87932H5.71231C5.7566 5.82897 5.71231 14.9998 5.71231 14.9998L5.71223 15Z" fill="white"/>
</g>
<defs>
<clipPath id="clip0_1_395">
<rect width="15.9111" height="15" fill="white" transform="translate(0.311523)"/>
</clipPath>
</defs>
</svg>
