<svg width="19" height="14" viewBox="0 0 19 14" fill="none" xmlns="http://www.w3.org/2000/svg">
<path d="M18.4449 1.64972C17.7817 1.93419 17.0782 2.12092 16.3579 2.20369C17.1082 1.76829 17.6843 1.0788 17.9556 0.257292C17.2423 0.6671 16.4619 0.955836 15.6482 1.11102C14.9853 0.427301 14.041 0 12.9958 0C10.989 0 9.36195 1.57523 9.36195 3.51808C9.36195 3.79386 9.39412 4.06234 9.45604 4.3199C6.43609 4.17314 3.75861 2.77253 1.96636 0.644C1.65364 1.16361 1.47445 1.76802 1.47445 2.41269C1.47445 3.6333 2.116 4.71009 3.09097 5.34103C2.51392 5.32353 1.94958 5.17264 1.44504 4.90094C1.44483 4.91567 1.44483 4.93041 1.44483 4.94521C1.44483 6.6498 2.69737 8.07177 4.35962 8.39497C3.82453 8.53587 3.26326 8.55649 2.71868 8.45526C3.18105 9.85298 4.52304 10.8701 6.11307 10.8986C4.86945 11.8421 3.30261 12.4046 1.60023 12.4046C1.30688 12.4046 1.01768 12.3879 0.733398 12.3554C2.34148 13.3536 4.25149 13.9361 6.30353 13.9361C12.9873 13.9361 16.6422 8.57516 16.6422 3.92609C16.6422 3.7735 16.6388 3.62178 16.6317 3.47093C17.3431 2.97301 17.9571 2.3563 18.4449 1.64972Z" fill="white"/>
</svg>
